<svg xmlns="http://www.w3.org/2000/svg" viewBox="0 0 52.97 10.36">
  <title>Diplomatic Logo</title>
  <g>
    <path d="M69.14,114.31v-7.22a0.84,0.84,0,0,1,.84-0.84h2.32a3.6,3.6,0,0,1,2.77,1,4.47,4.47,0,0,1,.91,3,5.46,5.46,0,0,1-.33,1.95,3.26,3.26,0,0,1-1,1.36,3.21,3.21,0,0,1-1.1.56,6.58,6.58,0,0,1-1.71.16H69.14Zm1.62-1.45H72.1a2.14,2.14,0,0,0,1.69-.61,2.92,2.92,0,0,0,.52-2,3.25,3.25,0,0,0-.49-2,1.74,1.74,0,0,0-1.5-.63H70.76v5.2Z" transform="translate(-69.14 -106.25)"/>
    <path d="M76.91,106.25h0.84a0.8,0.8,0,0,1,.8.8v0.49H76.91v-1.29Zm0,1.83h0.84a0.8,0.8,0,0,1,.8.8v5.44H76.91v-6.23Z" transform="translate(-69.14 -106.25)"/>
    <path d="M80.91,115.81a0.8,0.8,0,0,1-.8.8h-0.8v-5.84a2.43,2.43,0,0,1,1-2.24,3.88,3.88,0,0,1,2.09-.6,3.37,3.37,0,0,1,1.18.22,2.21,2.21,0,0,1,.95.64,3.73,3.73,0,0,1,.7,2.34,3.81,3.81,0,0,1-.7,2.39,2.2,2.2,0,0,1-1.8.89,2.38,2.38,0,0,1-1-.21,1.77,1.77,0,0,1-.75-0.73v2.32Zm2.67-4.59a2.4,2.4,0,0,0-.35-1.41,1.16,1.16,0,0,0-1-.49,1.14,1.14,0,0,0-1,.49,2.39,2.39,0,0,0-.33,1.41,2.13,2.13,0,0,0,.35,1.34,1.16,1.16,0,0,0,1,.49,1.12,1.12,0,0,0,1-.49A2.26,2.26,0,0,0,83.58,111.22Z" transform="translate(-69.14 -106.25)"/>
    <path d="M86,106.25h0.84a0.79,0.79,0,0,1,.56.22,0.73,0.73,0,0,1,.23.55v7.29H86v-8.06Z" transform="translate(-69.14 -106.25)"/>
    <path d="M89.23,113.75a2.32,2.32,0,0,1-.7-1.14,5.23,5.23,0,0,1-.21-1.49,4.71,4.71,0,0,1,.18-1.27A2.61,2.61,0,0,1,89,108.8a2.43,2.43,0,0,1,1.57-.83,3.61,3.61,0,0,1,1.73.15,2.39,2.39,0,0,1,1.31,1.22,3.89,3.89,0,0,1,.4,1.8,4.46,4.46,0,0,1-.16,1.29,3.3,3.3,0,0,1-.42.91,2.34,2.34,0,0,1-1.43,1,3.19,3.19,0,0,1-1.56,0A2.73,2.73,0,0,1,89.23,113.75Zm1.13-4.12a2.16,2.16,0,0,0-.45,1.61,2.56,2.56,0,0,0,.4,1.49,1.05,1.05,0,0,0,.49.32,1.12,1.12,0,0,0,.71,0,1.2,1.2,0,0,0,.64-0.53,2.64,2.64,0,0,0,.3-1.36,2.38,2.38,0,0,0-.27-1.27,1.22,1.22,0,0,0-.62-0.54,1.14,1.14,0,0,0-.7,0A1.22,1.22,0,0,0,90.36,109.62Z" transform="translate(-69.14 -106.25)"/>
    <path d="M100.19,114.31H98.57v-4a1,1,0,0,0-.34-0.82,1.23,1.23,0,0,0-.76-0.26,1.18,1.18,0,0,0-.75.26,1,1,0,0,0-.33.82v4H94.75v-3.66a2.36,2.36,0,0,1,.83-2.13,3.63,3.63,0,0,1,1.84-.59,4.74,4.74,0,0,1,1.05.12,2.21,2.21,0,0,1,.94.47,2.07,2.07,0,0,1,.83-0.43,4.65,4.65,0,0,1,1-.15,3.53,3.53,0,0,1,1.9.54,2.38,2.38,0,0,1,.87,2.18v3.66h-0.82a0.76,0.76,0,0,1-.8-0.8v-3.19a1,1,0,0,0-.34-0.82,1.25,1.25,0,0,0-1.52,0,1,1,0,0,0-.34.82v4Z" transform="translate(-69.14 -106.25)"/>
    <path d="M108.86,114.05a2.89,2.89,0,0,1-1,.32,9.32,9.32,0,0,1-1,.06,2.46,2.46,0,0,1-1.48-.46,1.74,1.74,0,0,1-.63-1.51,1.63,1.63,0,0,1,.57-1.41,3.31,3.31,0,0,1,1.46-.56l0.28,0,0.38-.06q1-.14,1-0.61a0.44,0.44,0,0,0-.36-0.46,2.41,2.41,0,0,0-.67-0.11,1.71,1.71,0,0,0-.59.09,0.64,0.64,0,0,0-.37.35H104.9a1.8,1.8,0,0,1,.66-1.2,2.71,2.71,0,0,1,1.8-.54,3.53,3.53,0,0,1,2,.45,1.5,1.5,0,0,1,.68,1.31v2.13a2.69,2.69,0,0,1-.34,1.46A2.08,2.08,0,0,1,108.86,114.05Zm-0.37-2.88a4.42,4.42,0,0,1-.91.3l-0.54.12a1.38,1.38,0,0,0-.61.3,1,1,0,0,0-.16.52,0.76,0.76,0,0,0,.21.56,0.89,0.89,0,0,0,.61.19,1.3,1.3,0,0,0,1.41-1.41v-0.59Z" transform="translate(-69.14 -106.25)"/>
    <path d="M113.5,114.31a12.17,12.17,0,0,1-1.68,0,1,1,0,0,1-.9-1.15v-6.89h0.84a0.74,0.74,0,0,1,.54.23,0.77,0.77,0,0,1,.23.56v1.05h1v0.33a0.76,0.76,0,0,1-.23.57,0.79,0.79,0,0,1-.56.22h-0.16v3.47a0.39,0.39,0,0,0,.47.4h0.49v1.22Z" transform="translate(-69.14 -106.25)"/>
    <path d="M114.25,106.25h0.84a0.8,0.8,0,0,1,.8.8v0.49h-1.64v-1.29Zm0,1.83h0.84a0.8,0.8,0,0,1,.8.8v5.44h-1.64v-6.23Z" transform="translate(-69.14 -106.25)"/>
    <path d="M120.94,112.39h1.17a2.56,2.56,0,0,1-1,1.5,3,3,0,0,1-1.83.54,2.61,2.61,0,0,1-2.09-.87,3.52,3.52,0,0,1-.75-2.41,3.48,3.48,0,0,1,.73-2.34,2.61,2.61,0,0,1,2.09-.87,2.81,2.81,0,0,1,2.18.84,3.21,3.21,0,0,1,.61,1.2h-1.64a1.36,1.36,0,0,0-.23-0.35,1.12,1.12,0,0,0-.87-0.33,1.14,1.14,0,0,0-.84.33,2.29,2.29,0,0,0-.42,1.55,2.19,2.19,0,0,0,.42,1.52,1.11,1.11,0,0,0,.91.38,1.33,1.33,0,0,0,.68-0.16,0.33,0.33,0,0,0,.13-0.08l0.13-.13a1,1,0,0,1,.19-0.19A0.65,0.65,0,0,1,120.94,112.39Z" transform="translate(-69.14 -106.25)"/>
  </g>
</svg>
